<svg width="221" height="326" viewBox="0 0 221 326" fill="none" xmlns="http://www.w3.org/2000/svg">
<path d="M154.95 319.245C157.189 322.331 159.753 325.104 163.73 326H164.401C169.072 324.794 171.87 321.361 174.29 317.575C178.794 310.527 181.377 302.682 183.462 294.674C184.481 290.767 185.349 286.821 186.218 282.874C186.481 281.681 186.744 280.487 187.011 279.294C187.146 278.685 187.149 278.039 187.153 277.406C187.153 277.318 187.154 277.231 187.155 277.145C187.172 274.705 187.189 272.265 187.206 269.825C187.344 250.246 187.481 230.664 187.577 211.083C187.584 209.753 188.009 209.027 189.162 208.344C199.776 202.07 210.388 195.794 221 189.517V125.585C212.788 127.32 204.576 129.054 196.363 130.788C194.45 131.192 192.531 131.561 190.587 131.935C189.627 132.12 188.661 132.306 187.687 132.498C187.661 132.331 187.638 132.191 187.617 132.068C187.575 131.816 187.545 131.636 187.527 131.454C187.302 129.192 187.077 126.93 186.851 124.668C186.263 118.763 185.675 112.859 185.1 106.953C184.516 100.936 183.934 94.919 183.353 88.9016C182.19 76.8687 181.026 64.8358 179.842 52.8058C179.725 51.6194 180.057 50.9063 181.022 50.1731C193.964 40.342 206.873 30.4676 219.764 20.5732C220.274 20.1833 220.884 19.4868 220.884 18.9303C220.896 15.3015 220.857 11.6727 220.818 8.04386C220.795 5.90398 220.772 3.7641 220.76 1.62422C220.75 0.0745947 220.156 -0.172047 218.685 0.171205C201.226 4.24028 183.75 8.25604 166.27 12.2451C165.218 12.4851 164.029 12.6417 163 12.4117C145.185 8.40599 127.381 4.33694 109.58 0.264515L109.499 0.246043C107.556 -0.199856 107.434 -0.227707 107.385 1.80082C107.316 4.57347 107.291 7.34698 107.266 10.1205C107.243 12.7274 107.22 15.3343 107.16 17.9405C107.13 19.2435 107.556 20.0467 108.594 20.8332C113.172 24.2961 117.738 27.7737 122.304 31.2514C129.826 36.9807 137.349 42.71 144.921 48.3735C147.156 50.0465 147.987 51.8327 147.742 54.5354C147.209 60.3888 146.724 66.2456 146.238 72.1023C145.78 77.6296 145.321 83.1569 144.823 88.681C144.049 97.2565 143.207 105.826 142.365 114.396C142.117 116.919 141.869 119.443 141.623 121.967C141.392 124.338 141.135 126.704 140.866 129.183C140.742 130.328 140.615 131.496 140.487 132.701C101.566 124.447 62.7878 116.221 23.9688 107.987L0.433883 102.994C0.41492 103.222 0.395958 103.416 0.379071 103.59C0.348201 103.906 0.324258 104.152 0.319926 104.397C0.290509 106.362 0.264543 108.326 0.238576 110.29C0.175774 115.037 0.112971 119.784 0.00155596 124.529C-0.0285871 125.746 0.37689 126.369 1.42242 126.986C22.1897 139.263 42.9521 151.548 63.7147 163.833C88.8388 178.698 113.963 193.564 139.096 208.417C140.239 209.093 140.544 209.827 140.551 211.06C140.657 231.469 140.8 251.878 140.943 272.287L140.976 276.975C140.978 277.146 140.975 277.32 140.973 277.494C140.964 278.047 140.956 278.605 141.083 279.127C141.541 281.011 141.988 282.898 142.434 284.786C143.684 290.068 144.934 295.353 146.435 300.562C148.339 307.171 150.852 313.6 154.95 319.245Z" fill="url(#paint0_linear_1054_41)"/>
<path d="M154.976 319.227L155.355 318.951C157.568 322.001 160.026 324.633 163.787 325.5H164.336C168.777 324.33 171.473 321.055 173.868 317.306C178.33 310.324 180.898 302.54 182.978 294.548L183.462 294.674L182.978 294.548C183.994 290.652 184.861 286.715 185.73 282.767L185.731 282.76C185.993 281.569 186.256 280.377 186.522 279.185C186.644 278.638 186.649 278.047 186.653 277.403C186.653 277.343 186.654 277.283 186.654 277.223L186.655 277.141L186.655 277.14L186.706 269.821C186.844 250.242 186.982 230.661 187.077 211.08C187.08 210.364 187.197 209.754 187.507 209.22C187.817 208.686 188.289 208.28 188.907 207.913L188.908 207.913C199.439 201.688 209.97 195.461 220.5 189.232V126.201C212.489 127.894 204.478 129.586 196.467 131.277L196.363 130.788L196.467 131.277C194.549 131.682 192.625 132.052 190.683 132.426L190.681 132.426L190.67 132.428C189.714 132.612 188.753 132.797 187.784 132.988L187.275 133.088L187.194 132.576C187.168 132.413 187.145 132.275 187.124 132.152L187.124 132.151L187.122 132.139C187.081 131.897 187.049 131.702 187.029 131.504C186.804 129.242 186.579 126.98 186.354 124.718L186.351 124.688C185.763 118.793 185.176 112.899 184.603 107.002L185.072 106.956L184.603 107.002C184.018 100.985 183.437 94.9671 182.855 88.9497C181.692 76.9167 180.529 64.8842 179.345 52.8548C179.281 52.206 179.335 51.6363 179.571 51.1137C179.806 50.5932 180.198 50.1709 180.72 49.775L181.022 50.1731L180.72 49.775C193.661 39.9445 206.569 30.0707 219.46 20.1766L219.46 20.1762C219.682 20.0062 219.928 19.7674 220.113 19.517C220.309 19.2513 220.384 19.0459 220.384 18.9303V18.9285C220.396 15.3039 220.357 11.6786 220.318 8.04924C220.295 5.90968 220.272 3.76867 220.26 1.62746C220.255 0.8662 220.097 0.670523 220.002 0.609558C219.944 0.572637 219.837 0.534775 219.63 0.53551C219.423 0.536249 219.152 0.575779 218.799 0.658126L218.799 0.658155C201.338 4.72746 183.862 8.7434 166.382 12.7326L166.27 12.2451L166.382 12.7326C165.311 12.9768 164.032 13.1547 162.891 12.8997L162.89 12.8996C145.075 8.89358 127.269 4.82433 109.468 0.751923L109.468 0.751847L109.387 0.733375M154.976 319.227L109.387 0.733375M154.976 319.227L155.355 318.951C151.305 313.372 148.811 307.006 146.916 300.424C145.418 295.228 144.171 289.955 142.921 284.671L142.92 284.666C142.474 282.78 142.027 280.893 141.569 279.009L141.569 279.009C141.46 278.559 141.464 278.068 141.473 277.501C141.475 277.329 141.478 277.15 141.476 276.971M154.976 319.227L141.476 276.971M109.387 0.733375C108.89 0.619258 108.549 0.541854 108.297 0.512169C108.117 0.490888 108.041 0.503082 108.018 0.50882M109.387 0.733375L108.018 0.50882M108.018 0.50882C108.006 0.529466 107.98 0.588121 107.955 0.726403C107.914 0.958626 107.897 1.29905 107.885 1.81304L107.885 1.81328C107.816 4.58125 107.791 7.35074 107.766 10.1249V10.1261C107.743 12.7321 107.72 15.3421 107.66 17.952C107.646 18.5452 107.737 18.9855 107.923 19.3558C108.11 19.7281 108.415 20.0704 108.896 20.4344C113.471 23.8957 118.035 27.3717 122.598 30.8471L122.607 30.8537L122.611 30.8565C130.132 36.5851 137.652 42.3121 145.22 47.9731L145.22 47.9732C146.382 48.8427 147.214 49.7682 147.716 50.8595C148.218 51.9526 148.368 53.1673 148.24 54.5805L148.24 54.5807C147.708 60.4317 147.222 66.2866 146.736 72.1436C146.278 77.6707 145.819 83.1997 145.321 88.7258L144.823 88.681L145.321 88.7259C144.547 97.3037 143.705 105.875 142.863 114.445L142.856 114.518C142.61 117.017 142.364 119.516 142.121 122.015C141.889 124.389 141.632 126.758 141.363 129.237C141.239 130.382 141.112 131.55 140.984 132.754L140.926 133.305L140.383 133.19C101.524 124.95 62.8082 116.737 24.0514 108.515L23.865 108.476L0.880411 103.6C0.879202 103.613 0.878004 103.625 0.876817 103.637L0.876713 103.638L0.379117 103.59L0.876711 103.638C0.845408 103.959 0.823803 104.184 0.819859 104.406C0.79046 106.369 0.764507 108.332 0.738547 110.296L0.738532 110.297C0.675735 115.044 0.612903 119.793 0.501418 124.541L0.501403 124.542C0.487751 125.093 0.574069 125.45 0.73866 125.727C0.906129 126.01 1.18844 126.267 1.67639 126.555L1.67688 126.555C22.4442 138.833 43.2067 151.118 63.9693 163.402L64.0276 163.437C89.1322 178.291 114.237 193.145 139.351 207.986L139.351 207.987C139.974 208.356 140.417 208.769 140.693 209.298C140.966 209.822 141.047 210.405 141.051 211.057C141.156 231.455 141.3 251.854 141.443 272.253L141.443 272.284L141.476 276.97L141.476 276.971M108.018 0.50882L140.973 277.494C140.975 277.32 140.978 277.146 140.976 276.975L141.476 276.971M108.024 0.499305C108.024 0.499342 108.024 0.499854 108.023 0.50072C108.024 0.499702 108.024 0.499268 108.024 0.499305Z" stroke="#F59E0B"/>
<defs>
<linearGradient id="paint0_linear_1054_41" x1="221" y1="0" x2="-10" y2="326" gradientUnits="userSpaceOnUse">
<stop stop-color="#F4B832"/>
<stop offset="0.614196" stop-color="#F4B832" stop-opacity="0"/>
</linearGradient>
</defs>
</svg>
